<svg xmlns="http://www.w3.org/2000/svg" width="267.539" height="82.963" viewBox="0 0 267.539 82.963">
  <g id="logo_simple_Plan_de_travail_1" data-name="logo_simple_Plan de travail 1" transform="translate(-56.8 -44.101)">
    <path id="Tracé_14" data-name="Tracé 14" d="M823.128,111.59c1.4-.914,2.5-1.64,3.577-2.34a15.923,15.923,0,0,0,1.291-.941c1.452-1.156,2.232-1.1,3.657.161a7.828,7.828,0,0,0,1.318.726,7.122,7.122,0,0,0,.538-1.318c.081-.619.134-1.237.161-1.882a3.8,3.8,0,0,1,3.442-3.523c1.748-.108,3.469-.215,5.109.726.4.242,1.156-.188,1.748-.161,2.232.161,2.447-1.345,2.662-3.012.4-2.824,1.156-5.513,3.523-7.476a2.406,2.406,0,0,0,.484-1.452c.457-4.007.861-7.987,1.264-11.994.081-.887.081-1.8.108-2.689a4.142,4.142,0,0,1,3.254-4.2,4.239,4.239,0,0,1,4.814,2.8,8.1,8.1,0,0,1,.081,5.405c-1.129,3.738-2.232,7.449-3.415,11.16a11.881,11.881,0,0,1-1.318,2.609,2.14,2.14,0,0,0-.161,2.609,2.549,2.549,0,0,1,.027,2.877c-.78,1.371-1.479,2.877-.887,4.6a.459.459,0,0,1,0,.269c-.4,2.367-.726,4.733-1.21,7.073-.538,2.474-1.264,4.921-1.856,7.4a.747.747,0,0,0,.108.592c2.125,1.963,4.276,3.9,6.427,5.862,1.183-.834,2.1-1.614,3.146-2.205,1.936-1.1,3.926-2.1,5.862-3.2a3.037,3.037,0,0,0,1.264-1.129,16.461,16.461,0,0,1,5.19-5.351c2.044-1.533,4.894-1.076,5.916,1.049a5.349,5.349,0,0,1,.35,3.362c-.834,3.227-2.447,5.889-5.62,7.476-1.129.565-1.936,1.775-3.362,2.017-.323.054-.538.672-.78,1.022-.807,1.156-1.587,2.34-2.367,3.5-1.963,2.9-5.056,4.2-8.041,5.728-2.474,1.264-4.787,2.877-7.153,4.383a20.146,20.146,0,0,1-7.96,2.609c-1.667.269-3.388.323-5.056.645a9.815,9.815,0,0,0-3.119,1.1c-3.819,2.259-9.251.941-11.268-2.958a17.416,17.416,0,0,1-.807-3.63c-.269-1.076-.619-2.1-.914-3.173a5.393,5.393,0,0,1-.4-1.533,11.2,11.2,0,0,0-2.85-7.288,4.774,4.774,0,0,1-.78-1.4,5,5,0,0,0-1.64-2.635,3.267,3.267,0,0,1-.861-2.151,23.589,23.589,0,0,1-.054-4.572C816.781,114.171,819.309,110.272,823.128,111.59Z" transform="translate(-555.387 -20.509)" fill="red"/>
    <path id="Tracé_15" data-name="Tracé 15" d="M335,186.048v17.668h9.95V186.048Zm22.885,0h-10.73c3.119,5.567,6.239,11.16,9.385,16.7.269.457.861,1.022,1.318,1.022,3.5.081,6.992.054,10.757.054q-5.526-9.157-10.73-17.776Zm8.014-18.394c-.726-4.867-3.684-7.826-8.283-9.251a15.286,15.286,0,0,0-4.2-.834c-5.378-.161-10.757-.188-16.108-.269H335v20.976h28.559c2.42-2.958,2.958-6.642,2.34-10.622Zm-10.73,7.1a6.687,6.687,0,0,1-3.63,1.748,55.864,55.864,0,0,1-6.535.538V164.615c2.474.269,4.867.323,7.153.807,3.9.861,5.7,6.347,3.012,9.332Z" transform="translate(-203.386 -82.758)" fill="red"/>
    <path id="Tracé_16" data-name="Tracé 16" d="M500.839,157.9c-.269-.726-.7-.78-1.318-.78-3.039.027-6.1.054-9.143-.027a1.524,1.524,0,0,0-1.721,1.183q-3.751,9.923-7.5,19.793h9.627c1.318-4.114,2.582-8.068,3.738-11.725,1.183,3.657,2.5,7.61,3.846,11.725h10.246C506.029,171.375,503.421,164.626,500.839,157.9Zm17.426,45.205c-2.205-5.755-4.437-11.483-6.642-17.211H478.2c-2.071,5.486-4.168,10.972-6.239,16.458-.161.4-.3.807-.457,1.291h10.649c.968-3.012,1.963-5.97,2.9-8.955a1.161,1.161,0,0,1,1.318-.968c5.325.027,10.676.027,16,0a1.288,1.288,0,0,1,1.425,1.022c.78,2.151,1.613,4.276,2.42,6.4.968,2.528.968,2.528,3.711,2.528h8.444A4.171,4.171,0,0,0,518.265,203.108Z" transform="translate(-303.179 -82.607)" fill="red"/>
    <path id="Tracé_17" data-name="Tracé 17" d="M89.689,157.262h10.972c-.861,2.34-1.694,4.545-2.5,6.75q-7.14,19.241-14.28,38.509a1.592,1.592,0,0,1-1.829,1.237c-2.635-.081-5.3-.027-8.068-.027-5.7-15.463-11.429-30.926-17.184-46.55,3.577,0,6.992-.027,10.38.027a1.167,1.167,0,0,1,.834.753c3.5,11.94,8.041,23.557,10.542,35.793a1.643,1.643,0,0,0,.188.376C81.3,181.438,86.247,169.606,89.689,157.262Z" transform="translate(0 -82.666)" fill="red"/>
    <rect id="Rectangle_112" data-name="Rectangle 112" width="9.842" height="20.895" transform="translate(222.804 74.596)" fill="red"/>
    <path id="Tracé_18" data-name="Tracé 18" d="M699.809,273.666v8.2H674.1V264.2h9.816v9.466Z" transform="translate(-451.296 -160.91)" fill="red"/>
    <rect id="Rectangle_113" data-name="Rectangle 113" width="9.816" height="20.895" transform="translate(108.433 74.596)" fill="red"/>
    <rect id="Rectangle_114" data-name="Rectangle 114" width="9.816" height="17.668" transform="translate(108.433 103.29)" fill="red"/>
    <path id="Tracé_19" data-name="Tracé 19" d="M885.878,56.82c-.215,2.555-.538,5.136-.645,7.691a38.051,38.051,0,0,0,.3,4.276,40.85,40.85,0,0,1,.269,5.432,3.294,3.294,0,0,1-4.141,2.609,3.2,3.2,0,0,1-1.587-2.205c-.269-2.716-.161-5.432-.377-8.148-.269-3.415-.753-6.831-1.076-10.246-.269-2.8-.484-5.62-.618-8.444a3.641,3.641,0,0,1,2.985-3.63,3.147,3.147,0,0,1,3.6,2.5,26.719,26.719,0,0,1,.726,4.625c.161,1.829.188,3.657.269,5.513Z" transform="translate(-600.362)" fill="red"/>
    <path id="Tracé_20" data-name="Tracé 20" d="M815.736,82.212c.323,1.076.645,2.178.995,3.254.108.35.269.672.377,1,.753,2.851,1.506,5.674,2.232,8.525a20.647,20.647,0,0,1,.914,4.545c0,.914-.807,1.829-1.291,2.716-.027.081-.645-.027-.807-.215a10.847,10.847,0,0,1-1.452-2.044c-.914-1.775-1.8-3.577-2.582-5.405-.941-2.205-1.748-4.491-2.662-6.723a47.5,47.5,0,0,1-2.286-5.432,46,46,0,0,1-1.506-7.852,2.45,2.45,0,0,1,3.765-2.259,6.851,6.851,0,0,1,2.9,2.824A50.368,50.368,0,0,1,816.409,82Z" transform="translate(-548.937 -20.363)" fill="red"/>
    <path id="Tracé_21" data-name="Tracé 21" d="M769.758,183.6a16.751,16.751,0,0,1-1.156,3.066,2.361,2.361,0,0,1-3.953-.027c-1.237-1.614-2.609-3.146-3.953-4.706-1.183-1.345-2.393-2.635-3.63-3.953a2.762,2.762,0,0,0-.807-.672,2.8,2.8,0,0,1-1.829-3.335c.108-.645.538-1.667.887-1.721.753-.081,1.56-.43,2.474.538,1.237,1.345,3.066,2.124,4.652,3.119s3.227,1.936,4.76,2.985A5.83,5.83,0,0,1,769.758,183.6Z" transform="translate(-509.977 -93.596)" fill="red"/>
  </g>
</svg>
