<svg xmlns="http://www.w3.org/2000/svg" width="79.283" height="72.644" viewBox="0 0 79.283 72.644">
  <path id="Tracé_13" data-name="Tracé 13" d="M166.781,85.08a7.228,7.228,0,0,0-6.754,4.679h-8.569L146.1,80.471q.219.009.439.009A11.4,11.4,0,1,0,136.56,74.6H125.051L121,68.865a7.143,7.143,0,0,0,1.2-3.962,7.222,7.222,0,1,0-7.222,7.221,6.967,6.967,0,0,0,1.906-.267l3.829,5.422-5.2,9.014a11.4,11.4,0,1,0,.269,12.481l5.115,8.86-2.835,8.23a7.229,7.229,0,1,0,4.809,1.659l2.591-7.52h9.945a11.4,11.4,0,1,0,10.7-5.888l5.353-9.271h8.569a7.22,7.22,0,1,0,6.754-9.766Zm0,5.087a2.135,2.135,0,1,1-2.136,2.135A2.135,2.135,0,0,1,166.781,90.167Zm-51.8-27.4a2.135,2.135,0,1,1-2.135,2.135,2.135,2.135,0,0,1,2.135-2.135Zm24.787,16.918L147.052,92.3l-7.283,12.615H125.2L117.919,92.3,125.2,79.685Zm6.766-4.294a6.312,6.312,0,1,1,6.312-6.312,6.312,6.312,0,0,1-6.312,6.312Zm-30.289,47a2.137,2.137,0,1,1,1.324,2.713A2.137,2.137,0,0,1,116.245,122.392Zm29.152-.586a6.312,6.312,0,1,1,6.311-6.311,6.312,6.312,0,0,1-6.311,6.311ZM106.126,86.423a6.351,6.351,0,0,1,6.231,5.339l-.311.542.387.671a6.312,6.312,0,1,1-6.307-6.552Z" transform="translate(-94.72 -57.678)" fill="#fbfbf2"/>
</svg>
